#!OML:ASF C:\Vicon Data\Big\jianyuan-12\jianyuan\Session 1\Capture.male.ASF
:FULLY-SPECIFIED
:DEGREES
14
root -8.001506 17.333768 -22.529851 5.055347 -0.879843 10.429243
lowerback -10.215794 -4.280062 -8.307212 
upperback 1.685935 -4.549124 -0.641231 
thorax 8.163406 -2.560222 3.174723 
lowerneck 0.965065 -10.117215 -7.665900 
upperneck 1.516284 -13.732726 13.031147 
head 1.741400 -6.787810 4.799719 
rclavicle 0.000000 0.000000 
rhumerus -51.305766 -40.468077 -61.146254 
rradius 27.970836 
rwrist 48.285972 
rhand -19.823899 -5.031429 
rfingers 0.000000 
rthumb 6.509787 -34.911342 
lclavicle 0.000000 0.000000 
lhumerus -19.020634 14.777909 88.007394 
lradius 40.187467 
lwrist -32.823999 
lhand -11.681186 5.169753 
lfingers 0.000000 
lthumb 14.364213 34.652739 
rfemur -33.517886 -1.887851 16.399601 
rtibia 30.555115 
rfoot -16.449583 -15.125022 
rtoes 14.793761 
lfemur 7.622366 2.256375 -29.089504 
ltibia 23.490467 
lfoot -11.719527 2.441021 
ltoes -39.232050 
15
root -8.023074 17.341831 -22.439221 5.066607 -0.997605 10.243844
lowerback -10.260829 -4.222762 -8.150691 
upperback 1.632034 -4.500713 -0.556394 
thorax 8.117545 -2.530478 3.187619 
lowerneck 1.031151 -10.157490 -7.688982 
upperneck 1.468206 -13.786002 13.043995 
head 1.724611 -6.817795 4.809010 
rclavicle 0.000000 0.000000 
rhumerus -51.230953 -40.461968 -61.127364 
rradius 27.880204 
rwrist 48.455879 
rhand -19.869186 -5.200652 
rfingers 0.000000 
rthumb 6.466078 -35.081904 
lclavicle 0.000000 0.000000 
lhumerus -19.338681 15.242636 87.918056 
lradius 39.845602 
lwrist -33.186739 
lhand -11.531852 5.190561 
lfingers 0.000000 
lthumb 14.508108 34.663268 
rfemur -33.349471 -1.849325 16.721639 
rtibia 30.879664 
rfoot -16.754664 -14.823617 
rtoes 14.395035 
lfemur 6.940606 2.633638 -28.671216 
ltibia 25.153488 
lfoot -11.047527 2.301619 
ltoes -38.883350 
16
root -8.038898 17.350643 -22.345025 5.012101 -0.977755 10.010186
lowerback -10.337295 -4.202651 -7.874451 
upperback 1.645797 -4.512002 -0.476761 
thorax 8.159998 -2.528670 3.111798 
lowerneck 1.055589 -10.178964 -7.678978 
upperneck 1.436285 -13.812628 13.019989 
head 1.711596 -6.832923 4.801258 
rclavicle 0.000000 0.000000 
rhumerus -51.153554 -40.522191 -61.140683 
rradius 27.892820 
rwrist 48.521152 
rhand -19.713213 -5.147540 
rfingers 0.000000 
rthumb 6.616635 -35.024136 
lclavicle 0.000000 0.000000 
lhumerus -19.616982 15.692804 87.811041 
lradius 39.479479 
lwrist -33.588164 
lhand -11.680061 5.211118 
lfingers 0.000000 
lthumb 14.365328 34.694068 
rfemur -33.075957 -2.029464 17.093820 
rtibia 31.189546 
rfoot -17.027200 -14.510973 
rtoes 14.407425 
lfemur 6.349867 2.884343 -28.217047 
ltibia 26.827126 
lfoot -10.245625 2.204008 
ltoes -38.534009 
17
root -8.059514 17.358445 -22.257127 5.006957 -1.095128 9.742301
lowerback -10.403443 -4.155395 -7.610289 
upperback 1.619705 -4.489165 -0.387249 
thorax 8.150987 -2.508545 3.062235 
lowerneck 1.119718 -10.187891 -7.689162 
upperneck 1.369923 -13.822172 13.060909 
head 1.686349 -6.840965 4.819740 
rclavicle 0.000000 0.000000 
rhumerus -51.032879 -40.484161 -61.242710 
rradius 27.895549 
rwrist 48.535756 
rhand -19.660314 -5.067962 
rfingers 0.000000 
rthumb 6.667706 -34.942956 
lclavicle 0.000000 0.000000 
lhumerus -19.968626 16.161838 87.663833 
lradius 39.146553 
lwrist -33.931437 
lhand -11.708046 5.119678 
lfingers 0.000000 
lthumb 14.338371 34.604551 
rfemur -32.893983 -2.074128 17.511550 
rtibia 31.476568 
rfoot -17.212069 -14.346094 
rtoes 14.255026 
lfemur 5.670570 3.320331 -27.702230 
ltibia 28.480229 
lfoot -9.417984 2.141344 
ltoes -38.539781 
18
root -8.079807 17.365963 -22.169646 5.032839 -1.211759 9.555812
lowerback -10.504635 -4.110032 -7.433900 
upperback 1.590485 -4.451897 -0.314959 
thorax 8.163508 -2.484789 3.043605 
lowerneck 1.182192 -10.205980 -7.675516 
upperneck 1.290463 -13.842043 13.080687 
head 1.655426 -6.854514 4.828215 
rclavicle 0.000000 0.000000 
rhumerus -50.932185 -40.521463 -61.259286 
rradius 27.826411 
rwrist 48.879585 
rhand -19.747345 -5.019776 
rfingers 0.000000 
rthumb 6.583702 -34.897429 
lclavicle 0.000000 0.000000 
lhumerus -20.303737 16.477942 87.533598 
lradius 38.826952 
lwrist -34.088529 
lhand -11.585269 5.194160 
lfingers 0.000000 
lthumb 14.456687 34.670605 
rfemur -32.735427 -2.131168 17.825064 
rtibia 31.726449 
rfoot -17.339714 -14.095907 
rtoes 14.170128 
lfemur 4.929713 3.726338 -27.281357 
ltibia 30.130110 
lfoot -8.608835 2.114574 
ltoes -38.280043 
19
root -8.099619 17.372060 -22.081147 5.064809 -1.445068 9.444308
lowerback -10.635707 -4.035517 -7.334012 
upperback 1.557169 -4.361248 -0.258742 
thorax 8.187980 -2.437883 3.059175 
lowerneck 1.207695 -10.236655 -7.611180 
upperneck 1.256539 -13.878816 12.997333 
head 1.634581 -6.875111 4.794669 
rclavicle 0.000000 0.000000 
rhumerus -50.822129 -40.574926 -61.268450 
rradius 27.769155 
rwrist 49.465506 
rhand -19.644850 -5.271753 
rfingers 0.000000 
rthumb 6.682640 -35.146267 
lclavicle 0.000000 0.000000 
lhumerus -20.670981 16.900225 87.401834 
lradius 38.495514 
lwrist -34.424528 
lhand -11.601715 5.352295 
lfingers 0.000000 
lthumb 14.440792 34.829877 
rfemur -32.591495 -2.186864 18.069438 
rtibia 31.946075 
rfoot -17.361236 -13.700605 
rtoes 13.953315 
lfemur 4.151350 4.176594 -26.978548 
ltibia 31.800148 
lfoot -7.738854 2.153504 
ltoes -37.322408 
20
root -8.118503 17.376318 -21.994570 5.245985 -1.816613 9.246213
lowerback -10.903031 -3.920147 -7.093313 
upperback 1.473794 -4.226342 -0.195328 
thorax 8.220233 -2.361865 3.007064 
lowerneck 1.242652 -10.253999 -7.622841 
upperneck 1.237594 -13.902298 13.030737 
head 1.629063 -6.887933 4.807461 
rclavicle 0.000000 0.000000 
rhumerus -50.679219 -40.615793 -61.345988 
rradius 27.769271 
rwrist 49.784456 
rhand -19.421949 -5.486501 
rfingers 0.000000 
rthumb 6.897809 -35.354076 
lclavicle 0.000000 0.000000 
lhumerus -21.069239 17.318389 87.220338 
lradius 38.177486 
lwrist -34.679430 
lhand -11.668962 5.372592 
lfingers 0.000000 
lthumb 14.375978 34.854782 
rfemur -32.630028 -2.215880 18.427229 
rtibia 32.154666 
rfoot -17.317098 -13.217607 
rtoes 13.653902 
lfemur 3.199534 4.766155 -26.612423 
ltibia 33.433465 
lfoot -6.726250 2.191406 
ltoes -35.739104 
21
root -8.137068 17.380237 -21.910980 5.408800 -2.111500 9.183067
lowerback -11.127845 -3.847296 -6.981749 
upperback 1.402719 -4.128777 -0.179715 
thorax 8.252896 -2.308242 2.970844 
lowerneck 1.278336 -10.239761 -7.624306 
upperneck 1.199201 -13.881609 13.096592 
head 1.614759 -6.878696 4.831254 
rclavicle 0.000000 0.000000 
rhumerus -50.460038 -40.558868 -61.556447 
rradius 27.801453 
rwrist 49.777591 
rhand -19.357152 -5.331073 
rfingers 0.000000 
rthumb 6.960390 -35.196645 
lclavicle 0.000000 0.000000 
lhumerus -21.461708 17.712158 87.019324 
lradius 37.889386 
lwrist -34.847840 
lhand -11.647335 5.509013 
lfingers 0.000000 
lthumb 14.396819 34.989693 
rfemur -32.647750 -2.315035 18.631561 
rtibia 32.351053 
rfoot -17.307507 -12.756194 
rtoes 13.425305 
lfemur 2.236006 5.293272 -26.377605 
ltibia 35.038015 
lfoot -5.660439 2.188652 
ltoes -35.297014 
22
root -8.157261 17.385446 -21.820083 5.342435 -2.260043 9.148630
lowerback -11.151117 -3.810645 -6.949578 
upperback 1.391316 -4.085115 -0.157255 
thorax 8.248118 -2.286026 2.984700 
lowerneck 1.301598 -10.255140 -7.593104 
upperneck 1.180400 -13.900142 13.037234 
head 1.600838 -6.889716 4.810130 
rclavicle 0.000000 0.000000 
rhumerus -50.259569 -40.503820 -61.719296 
rradius 27.792465 
rwrist 49.910062 
rhand -19.323411 -5.309364 
rfingers 0.000000 
rthumb 6.992963 -35.173831 
lclavicle 0.000000 0.000000 
lhumerus -21.882209 18.199498 86.810740 
lradius 37.556443 
lwrist -35.158522 
lhand -11.565691 5.508743 
lfingers 0.000000 
lthumb 14.475499 34.983819 
rfemur -32.347412 -2.506268 18.786032 
rtibia 32.546216 
rfoot -17.436392 -12.319624 
rtoes 13.263875 
lfemur 1.567423 5.640597 -26.151469 
ltibia 36.598357 
lfoot -4.621822 2.240000 
ltoes -34.629865 
23
root -8.177733 17.391546 -21.733877 5.262668 -2.318858 9.047489
lowerback -11.128348 -3.788562 -6.851755 
upperback 1.401758 -4.074255 -0.129170 
thorax 8.239490 -2.277748 2.963227 
lowerneck 1.308986 -10.269688 -7.509960 
upperneck 1.156545 -13.915044 12.993116 
head 1.585179 -6.897653 4.785257 
rclavicle 0.000000 0.000000 
rhumerus -50.026729 -40.517351 -61.892624 
rradius 27.728517 
rwrist 49.953663 
rhand -19.273755 -5.281655 
rfingers 0.000000 
rthumb 7.040909 -35.144568 
lclavicle 0.000000 0.000000 
lhumerus -22.263238 18.440903 86.603650 
lradius 37.220508 
lwrist -35.282374 
lhand -11.580159 5.572987 
lfingers 0.000000 
lthumb 14.461539 35.049060 
rfemur -32.019155 -2.702954 19.007619 
rtibia 32.725739 
rfoot -17.639762 -11.933985 
rtoes 13.112885 
lfemur 0.887395 5.901053 -25.835252 
ltibia 38.149166 
lfoot -3.604026 2.461633 
ltoes -34.255717 
